<svg xmlns="http://www.w3.org/2000/svg" xmlns:xlink="http://www.w3.org/1999/xlink" width="112" height="112" viewBox="0 0 112 112">
  <defs>
    <linearGradient id="linear-gradient" x1="0.5" x2="0.5" y2="1" gradientUnits="objectBoundingBox">
      <stop offset="0" stop-color="#00057b"/>
      <stop offset="1" stop-color="#0153ff"/>
    </linearGradient>
    <filter id="Elipse_90" x="0" y="0" width="112" height="112" filterUnits="userSpaceOnUse">
      <feOffset dy="3" input="SourceAlpha"/>
      <feGaussianBlur stdDeviation="3" result="blur"/>
      <feFlood flood-opacity="0.161"/>
      <feComposite operator="in" in2="blur"/>
      <feComposite in="SourceGraphic"/>
    </filter>
    <clipPath id="clip-path">
      <rect id="Rectángulo_222" data-name="Rectángulo 222" width="62.894" height="65.476" transform="translate(0 0)" fill="#00057b"/>
    </clipPath>
    <linearGradient id="linear-gradient-2" x1="1" y1="0.521" x2="0" y2="0.534" xlink:href="#linear-gradient"/>
  </defs>
  <g id="Chat" transform="translate(3)">
    <ellipse id="Elipse_91" data-name="Elipse 91" cx="52.5" cy="53" rx="52.5" ry="53" fill="url(#linear-gradient)"/>
    <g transform="matrix(1, 0, 0, 1, -3, 0)" filter="url(#Elipse_90)">
      <circle id="Elipse_90-2" data-name="Elipse 90" cx="47" cy="47" r="47" transform="translate(9 6)" fill="#fff"/>
    </g>
    <g id="Grupo_233" data-name="Grupo 233" transform="translate(21 20)">
      <g id="Grupo_232" data-name="Grupo 232" clip-path="url(#clip-path)">
        <path id="Trazado_404" data-name="Trazado 404" d="M38.614,57.256a80.764,80.764,0,0,1-8.41.669C12.139,57.925,0,44.447,0,28.676,0,12.808,15.2,0,30.2,0,48.269,0,62.893,12.808,62.893,28.676A28.726,28.726,0,0,1,52.855,51.138V65.476ZM57.825,28.963c0-13.192-11.947-23.9-27.621-23.9-12.521,0-25.14,10.7-25.14,23.9s9.847,23.9,25.14,23.9a69.726,69.726,0,0,0,8.983-.67l8.6,5.736V48.938c6.115-4.969,10.034-11.66,10.034-19.975" fill-rule="evenodd" fill="url(#linear-gradient-2)"/>
        <path id="Trazado_405" data-name="Trazado 405" d="M44.159,24.086a4.842,4.842,0,0,0-3.44,1.34,5.094,5.094,0,0,0-1.433,3.442,4.922,4.922,0,0,0,1.433,3.441,4.85,4.85,0,0,0,6.882,0,4.921,4.921,0,0,0,1.432-3.441A5.093,5.093,0,0,0,47.6,25.426a4.843,4.843,0,0,0-3.442-1.34" fill-rule="evenodd" fill="url(#linear-gradient-2)"/>
        <path id="Trazado_406" data-name="Trazado 406" d="M17.107,24.086a4.845,4.845,0,0,0-3.44,1.34,5.094,5.094,0,0,0-1.433,3.442,4.922,4.922,0,0,0,1.433,3.441,4.548,4.548,0,0,0,3.44,1.432,4.538,4.538,0,0,0,3.44-1.432,4.9,4.9,0,0,0,1.437-3.441,5.075,5.075,0,0,0-1.437-3.442,4.835,4.835,0,0,0-3.44-1.34" fill-rule="evenodd" fill="url(#linear-gradient-2)"/>
        <path id="Trazado_407" data-name="Trazado 407" d="M30.586,24.086a4.585,4.585,0,0,0-4.778,4.782,4.843,4.843,0,0,0,1.337,3.441,4.7,4.7,0,0,0,3.441,1.432,4.4,4.4,0,0,0,3.441-1.432,4.632,4.632,0,0,0,1.532-3.441,4.785,4.785,0,0,0-1.532-3.442,4.679,4.679,0,0,0-3.441-1.34" fill-rule="evenodd" fill="url(#linear-gradient-2)"/>
      </g>
    </g>
  </g>
</svg>
