<?xml version="1.0" standalone="no"?>
<!DOCTYPE svg PUBLIC "-//W3C//DTD SVG 20010904//EN"
 "http://www.w3.org/TR/2001/REC-SVG-20010904/DTD/svg10.dtd">
<svg version="1.0" xmlns="http://www.w3.org/2000/svg"
 width="3226.000000pt" height="1306.000000pt" viewBox="0 0 3226.000000 1306.000000"
 preserveAspectRatio="xMidYMid meet">

<g transform="translate(0.000000,1306.000000) scale(0.100000,-0.100000)"
fill="#000000" stroke="none">
<path d="M1190 6530 l0 -5240 1505 0 1505 0 0 5240 0 5240 -1505 0 -1505 0 0
-5240z"/>
<path d="M19130 6530 l0 -5240 1510 0 1510 0 0 5240 0 5240 -1510 0 -1510 0 0
-5240z"/>
<path d="M28060 6530 l0 -5240 1505 0 1505 0 0 5240 0 5240 -1505 0 -1505 0 0
-5240z"/>
<path d="M13560 8719 c-1499 -148 -2759 -1175 -3203 -2609 -66 -214 -124 -490
-143 -677 l-7 -73 3695 0 c2032 0 3697 2 3700 5 7 7 -18 201 -42 330 -156 822
-578 1562 -1200 2109 -565 497 -1232 799 -1990 902 -147 19 -659 28 -810 13z"/>
<path d="M4930 5014 c0 -3521 1 -3704 18 -3704 42 0 309 44 429 70 927 203
1760 773 2287 1565 330 498 522 1009 603 1615 22 168 26 694 5 860 -72 582
-246 1083 -542 1560 -480 771 -1247 1353 -2113 1604 -221 64 -349 90 -654 130
l-33 5 0 -3705z"/>
<path d="M27235 8703 c-1132 -149 -2128 -802 -2714 -1777 -642 -1069 -705
-2401 -166 -3518 284 -590 735 -1114 1270 -1474 484 -326 998 -524 1567 -603
82 -12 150 -21 153 -21 3 0 5 1665 5 3700 l0 3700 -42 -1 c-24 -1 -56 -4 -73
-6z"/>
<path d="M10210 4633 c0 -60 53 -363 90 -510 68 -274 146 -489 271 -744 191
-389 405 -687 718 -999 425 -424 895 -714 1461 -900 1283 -423 2685 -117 3678
803 633 586 1056 1401 1161 2232 7 50 14 102 16 118 l5 27 -3700 0 -3700 0 0
-27z"/>
</g>
</svg>
