<svg xmlns="http://www.w3.org/2000/svg" width="62" height="62" viewBox="0 0 62 62">
  <g id="Grupo_273" data-name="Grupo 273" transform="translate(-502 -917)">
    <circle id="Elipse_44" data-name="Elipse 44" cx="31" cy="31" r="31" transform="translate(502 917)" fill="#00057b"/>
    <g id="Grupo_8" data-name="Grupo 8" transform="translate(518 933)">
      <path id="Trazado_8" data-name="Trazado 8" d="M104.06,5.5a7.868,7.868,0,1,0,7.868,7.868A7.868,7.868,0,0,0,104.06,5.5m0,12.974a5.107,5.107,0,1,1,5.106-5.106,5.105,5.105,0,0,1-5.106,5.106" transform="translate(-88.723 1.958)" fill="#fff"/>
      <path id="Trazado_9" data-name="Trazado 9" d="M113.329,1.085c-2.822-.132-9.809-.126-12.632,0a9.167,9.167,0,0,0-6.435,2.48c-2.949,2.949-2.572,6.923-2.572,12.75,0,5.964-.332,9.845,2.572,12.75,2.961,2.959,6.992,2.572,12.75,2.572,5.908,0,7.948,0,10.035-.805,2.842-1.1,4.985-3.642,5.2-8.2.132-2.823.124-9.809,0-12.632-.255-5.382-3.142-8.647-8.913-8.913m4.465,26.028c-1.934,1.932-4.615,1.76-10.819,1.76-6.389,0-8.951.094-10.819-1.78-2.154-2.142-1.764-5.582-1.764-10.8,0-7.058-.724-12.143,6.361-12.507,1.627-.056,2.106-.076,6.2-.076l.058.038c6.809,0,12.15-.712,12.47,6.371.073,1.617.089,2.1.089,6.194,0,6.313.119,8.89-1.78,10.8" transform="translate(-91.674 -0.988)" fill="#fff"/>
      <path id="Trazado_10" data-name="Trazado 10" d="M108.465,6.039A1.838,1.838,0,1,1,106.627,4.2a1.838,1.838,0,0,1,1.838,1.838" transform="translate(-83.109 1.109)" fill="#fff"/>
    </g>
  </g>
</svg>
