<svg xmlns="http://www.w3.org/2000/svg" width="62" height="62" viewBox="0 0 62 62">
  <g id="Grupo_271" data-name="Grupo 271" transform="translate(-206 -917)">
    <circle id="Elipse_46" data-name="Elipse 46" cx="31" cy="31" r="31" transform="translate(206 917)" fill="#00057b"/>
    <path id="Trazado_3" data-name="Trazado 3" d="M31.755.422H5.357A5.163,5.163,0,0,0,0,5.352V22.321a5.164,5.164,0,0,0,5.357,4.931h26.4a5.164,5.164,0,0,0,5.357-4.931V5.352A5.163,5.163,0,0,0,31.755.422m0,2.357a3.017,3.017,0,0,1,.636.07L21.254,14.477a3.807,3.807,0,0,1-5.4,0L4.721,2.848a3.017,3.017,0,0,1,.636-.07Zm2.8,19.542a2.7,2.7,0,0,1-2.8,2.574H5.357a2.7,2.7,0,0,1-2.8-2.574V5.352a2.392,2.392,0,0,1,.21-.975L13.936,16.036a6.522,6.522,0,0,0,9.24,0L34.342,4.377a2.392,2.392,0,0,1,.21.975Z" transform="translate(218.444 934.163)" fill="#fff"/>
  </g>
</svg>
