<svg xmlns="http://www.w3.org/2000/svg" width="62" height="62" viewBox="0 0 62 62">
  <g id="Grupo_274" data-name="Grupo 274" transform="translate(-650 -917)">
    <circle id="Elipse_43" data-name="Elipse 43" cx="31" cy="31" r="31" transform="translate(650 917)" fill="#00057b"/>
    <path id="Trazado_2" data-name="Trazado 2" d="M167.8,5.89a16.4,16.4,0,0,0-25.81,19.787l-2.329,8.5,8.693-2.281a16.389,16.389,0,0,0,7.837,2h.007a16.407,16.407,0,0,0,11.6-28m-11.6,25.23h0a13.609,13.609,0,0,1-6.939-1.9l-.5-.3L143.6,30.278l1.375-5.03-.324-.516A13.63,13.63,0,1,1,156.2,31.119m7.478-10.207c-.41-.2-2.427-1.2-2.8-1.334s-.65-.2-.922.207-1.06,1.332-1.3,1.607-.478.307-.888.1a11.164,11.164,0,0,1-3.294-2.035,12.383,12.383,0,0,1-2.281-2.838c-.238-.41,0-.61.18-.836a11.275,11.275,0,0,0,1.025-1.4.757.757,0,0,0-.035-.717c-.1-.2-.922-2.222-1.263-3.042-.334-.8-.669-.691-.922-.7s-.512-.015-.784-.015a1.5,1.5,0,0,0-1.094.514,4.6,4.6,0,0,0-1.435,3.417,7.985,7.985,0,0,0,1.674,4.24c.207.273,2.889,4.412,7,6.186a23.476,23.476,0,0,0,2.334.865,5.632,5.632,0,0,0,2.582.162,4.222,4.222,0,0,0,2.765-1.949,3.425,3.425,0,0,0,.238-1.947c-.1-.172-.375-.274-.784-.479" transform="translate(525.335 929.919)" fill="#fff" fill-rule="evenodd"/>
  </g>
</svg>
