<svg xmlns="http://www.w3.org/2000/svg" xmlns:xlink="http://www.w3.org/1999/xlink" width="281" height="281" viewBox="0 0 281 281">
  <defs>
    <filter id="Sustracción_1" x="0" y="0" width="281" height="281" filterUnits="userSpaceOnUse">
      <feOffset dy="3" input="SourceAlpha"/>
      <feGaussianBlur stdDeviation="3" result="blur"/>
      <feFlood flood-opacity="0.161"/>
      <feComposite operator="in" in2="blur"/>
      <feComposite in="SourceGraphic"/>
    </filter>
  </defs>
  <g transform="matrix(1, 0, 0, 1, 0, 0)" filter="url(#Sustracción_1)">
    <path id="Sustracción_1-2" data-name="Sustracción 1" d="M131.5,263a132.471,132.471,0,0,1-26.5-2.672,130.78,130.78,0,0,1-47.021-19.787,131.884,131.884,0,0,1-47.643-57.856A130.841,130.841,0,0,1,2.672,158a132.786,132.786,0,0,1,0-53A130.78,130.78,0,0,1,22.458,57.977,131.883,131.883,0,0,1,80.314,10.334,130.84,130.84,0,0,1,105,2.672a132.786,132.786,0,0,1,53,0,130.78,130.78,0,0,1,47.021,19.786,131.884,131.884,0,0,1,47.643,57.856A130.84,130.84,0,0,1,260.329,105a132.78,132.78,0,0,1,0,53,130.781,130.781,0,0,1-19.787,47.021,131.885,131.885,0,0,1-57.856,47.643A130.84,130.84,0,0,1,158,260.329,132.468,132.468,0,0,1,131.5,263Zm5.316-121.331c-4.072,0-8.212.1-12.216.188-3.4.078-6.9.159-10.35.182a46.535,46.535,0,0,0-7.945.829,61.511,61.511,0,0,0-19.267,6.887,57.865,57.865,0,0,0-15.2,12.337,58.631,58.631,0,0,0-10.254,16.733A63.361,63.361,0,0,0,57.149,198.9a10.934,10.934,0,0,0,11.5,12.293h.179c8.035-.1,16.806-.14,27.6-.14,5.926,0,11.886.013,17.65.025,5.779.012,11.754.025,17.649.025h40.452c2.384,0,4.806.005,7.148.01s4.764.01,7.148.01c3.76,0,6.845-.013,9.708-.04a10.527,10.527,0,0,0,7.7-3.133,9.755,9.755,0,0,0,2.507-7.3,77.691,77.691,0,0,0-1.77-13.393A58.385,58.385,0,0,0,187.1,157.243,57.233,57.233,0,0,0,155.751,142.7,147.784,147.784,0,0,0,136.816,141.67Zm-4.948-90.5h-.084a42.37,42.37,0,0,0-16.529,3.367,43,43,0,0,0-22.7,22.552,41.449,41.449,0,0,0-3.368,16.4,43.113,43.113,0,0,0,3.331,16.737,42.427,42.427,0,0,0,39.242,26.185h.087a42.621,42.621,0,1,0,.021-85.242ZM196.044,200.4H67.69c.356-9.554,2.654-17.525,7.026-24.367a56.323,56.323,0,0,1,8.152-10.1,46.243,46.243,0,0,1,21.079-11.8,56.842,56.842,0,0,1,12.865-1.695c4.075-.087,8.434-.129,13.326-.129,5.35,0,10.5.047,16.686.109a51.211,51.211,0,0,1,17.284,3.122A48.159,48.159,0,0,1,189.345,176.9a51.319,51.319,0,0,1,5.948,16.528c.27,1.515.4,3.038.538,4.651.065.755.131,1.534.214,2.322h0Zm-64.212-74.532h-.112a31.853,31.853,0,0,1-22.652-9.509,32.157,32.157,0,0,1-6.837-10.282,32.489,32.489,0,0,1-2.493-12.6A30.834,30.834,0,0,1,102.3,81.2a32.61,32.61,0,0,1,17.121-16.955A31.531,31.531,0,0,1,131.8,61.72h.109A32.181,32.181,0,0,1,163.9,93.887a31.4,31.4,0,0,1-2.542,12.4,32.476,32.476,0,0,1-17.1,17.05A31.593,31.593,0,0,1,131.832,125.867Z" transform="translate(9 6)" fill="#fff" opacity="0.905"/>
  </g>
</svg>
