<svg xmlns="http://www.w3.org/2000/svg" width="25.235" height="29" viewBox="0 0 25.235 29">
  <path id="IconoClientes" d="M4.219,28a2.978,2.978,0,0,1-2.974-2.974v-.674H.384a.384.384,0,0,1,0-.768h.861V21.9H.384a.384.384,0,1,1,0-.768h.861V19.444H.384a.384.384,0,1,1,0-.768h.861V16.99H.384a.384.384,0,1,1,0-.768h.861V14.536H.384a.384.384,0,0,1,0-.768h.861V12.082H.384a.384.384,0,0,1,0-.768h.861V9.628H.384a.384.384,0,0,1,0-.768h.861V7.175H.384a.384.384,0,0,1,0-.768h.861V4.721H.384a.384.384,0,0,1,0-.768h.861V2.974A2.978,2.978,0,0,1,4.219,0H19.371a2.977,2.977,0,0,1,2.961,2.706,1.327,1.327,0,0,1,1.9,1.192V16.546a1.326,1.326,0,0,1-1.89,1.2v7.282A2.978,2.978,0,0,1,19.371,28ZM2.013,25.026a2.208,2.208,0,0,0,2.206,2.206H19.371a2.208,2.208,0,0,0,2.206-2.206V2.974A2.209,2.209,0,0,0,19.371.768H4.219A2.209,2.209,0,0,0,2.013,2.974v.978h.861a.384.384,0,1,1,0,.768H2.013V6.406h.861a.384.384,0,0,1,0,.768H2.013V8.86h.861a.384.384,0,0,1,0,.768H2.013v1.686h.861a.384.384,0,1,1,0,.768H2.013v1.686h.861a.384.384,0,0,1,0,.768H2.013v1.686h.861a.384.384,0,1,1,0,.768H2.013v1.686h.861a.384.384,0,1,1,0,.768H2.013V21.13h.861a.384.384,0,1,1,0,.768H2.013v1.686h.861a.384.384,0,1,1,0,.768H2.013Zm20.332-8.48a.561.561,0,0,0,1.122,0V14.857H22.345Zm0-2.457h1.122V12.023H22.345Zm0-2.834h1.122V9.189H22.345Zm0-2.834h1.122V6.355H22.345Zm0-4.523V5.587h1.122V3.9a.561.561,0,0,0-1.122,0ZM7.682,20.323A1.525,1.525,0,0,1,6.21,18.379l.218-.758a1.682,1.682,0,0,1,1.111-1.139l2.294-.728A.236.236,0,0,0,10,15.529v-.657a2.646,2.646,0,0,1-1.508-2.384V10.561a2.648,2.648,0,0,1,2.645-2.645h1.245a2.648,2.648,0,0,1,2.645,2.645v1.927a2.646,2.646,0,0,1-1.508,2.384v.657a.235.235,0,0,0,.166.224l2.294.728a1.682,1.682,0,0,1,1.111,1.139l.218.758a1.525,1.525,0,0,1-1.472,1.943Zm3.085-4.793a1,1,0,0,1-.7.956l-2.294.728a.914.914,0,0,0-.605.619l-.218.758a.746.746,0,0,0,.122.659.759.759,0,0,0,.611.3h8.154a.759.759,0,0,0,.611-.3.744.744,0,0,0,.122-.659l-.218-.759a.914.914,0,0,0-.6-.619l-2.294-.728a1,1,0,0,1-.7-.956V15.1a2.657,2.657,0,0,1-.37.029H11.136a2.657,2.657,0,0,1-.37-.029ZM9.259,10.561v1.927a1.879,1.879,0,0,0,1.877,1.877h1.245a1.879,1.879,0,0,0,1.877-1.877V10.561a1.879,1.879,0,0,0-1.877-1.877H11.136A1.879,1.879,0,0,0,9.259,10.561Z" transform="translate(0.5 0.5)" fill="#454545" stroke="rgba(0,0,0,0)" stroke-width="1"/>
</svg>
