<svg xmlns="http://www.w3.org/2000/svg" width="28.963" height="29" viewBox="0 0 28.963 29">
  <path id="IconoDepartamentos" d="M20.715,28A1.32,1.32,0,0,1,19.4,26.681V21.1a1.32,1.32,0,0,1,1.318-1.319h5.93A1.32,1.32,0,0,1,27.963,21.1v5.578A1.32,1.32,0,0,1,26.645,28Zm-.552-6.9v5.578a.552.552,0,0,0,.552.552h5.93a.552.552,0,0,0,.552-.552V21.1a.552.552,0,0,0-.552-.552h-5.93A.552.552,0,0,0,20.163,21.1ZM1.318,28A1.32,1.32,0,0,1,0,26.681V21.1a1.32,1.32,0,0,1,1.318-1.319h5.93A1.32,1.32,0,0,1,8.567,21.1v5.578A1.32,1.32,0,0,1,7.248,28ZM.767,21.1v5.578a.552.552,0,0,0,.552.552h5.93a.552.552,0,0,0,.552-.552V21.1a.552.552,0,0,0-.552-.552H1.318A.552.552,0,0,0,.767,21.1Zm20.956,4.2a.384.384,0,1,1,0-.767H23.68a.384.384,0,0,1,0,.767Zm-19.4,0a.384.384,0,0,1,0-.767H4.283a.384.384,0,1,1,0,.767ZM9.8,24.5a.384.384,0,1,1,0-.767h8.087a.384.384,0,0,1,0,.767Zm11.92-1.318a.383.383,0,1,1,0-.767h3.96a.383.383,0,0,1,0,.767Zm-19.4,0a.383.383,0,1,1,0-.767h3.96a.383.383,0,0,1,0,.767Zm6.308-9.163a5.4,5.4,0,0,1,5.212-5.562,5.4,5.4,0,0,1,5.212,5.562,5.4,5.4,0,0,1-5.212,5.562A5.4,5.4,0,0,1,8.634,14.023Zm.767,0a4.635,4.635,0,0,0,4.445,4.8,4.635,4.635,0,0,0,4.445-4.8,4.635,4.635,0,0,0-4.445-4.8A4.635,4.635,0,0,0,9.4,14.023Zm13.131,3.324V10.575a.383.383,0,0,1,.767,0v6.772a.383.383,0,1,1-.767,0Zm-18.249,0V10.575a.383.383,0,0,1,.767,0v6.772a.383.383,0,1,1-.767,0ZM15.876,14.5a.383.383,0,0,1,0-.767h.546a.383.383,0,1,1,0,.767Zm-2.237,0a.383.383,0,0,1,0-.767h.547a.383.383,0,0,1,0,.767Zm-2.2,0a.383.383,0,0,1,0-.767h.547a.383.383,0,0,1,0,.767Zm9.273-6.282A1.32,1.32,0,0,1,19.4,6.9V1.319A1.32,1.32,0,0,1,20.715,0h5.93a1.32,1.32,0,0,1,1.318,1.319V6.9a1.32,1.32,0,0,1-1.318,1.318Zm-.552-6.9V6.9a.553.553,0,0,0,.552.552h5.93A.552.552,0,0,0,27.2,6.9V1.319a.552.552,0,0,0-.552-.552h-5.93A.553.553,0,0,0,20.163,1.319ZM1.318,8.215A1.32,1.32,0,0,1,0,6.9V1.319A1.32,1.32,0,0,1,1.318,0h5.93A1.32,1.32,0,0,1,8.567,1.319V6.9A1.32,1.32,0,0,1,7.248,8.215Zm-.552-6.9V6.9a.552.552,0,0,0,.552.552h5.93A.552.552,0,0,0,7.8,6.9V1.319A.552.552,0,0,0,7.248.767H1.318A.552.552,0,0,0,.767,1.319Zm20.956,4.2a.383.383,0,1,1,0-.767H23.68a.383.383,0,0,1,0,.767Zm-19.4,0a.383.383,0,0,1,0-.767H4.283a.383.383,0,1,1,0,.767ZM9.8,4.491a.383.383,0,1,1,0-.767h8.087a.383.383,0,0,1,0,.767ZM21.723,3.4a.383.383,0,1,1,0-.767h3.96a.383.383,0,1,1,0,.767Zm-19.4,0a.383.383,0,1,1,0-.767h3.96a.383.383,0,0,1,0,.767Z" transform="translate(0.5 0.5)" fill="#454545" stroke="rgba(0,0,0,0)" stroke-width="1"/>
</svg>
