<svg xmlns="http://www.w3.org/2000/svg" width="32.461" height="29" viewBox="0 0 32.461 29">
  <path id="IconoEmpleados" d="M12.382,28a1.149,1.149,0,0,1-1.075-.786H9.968a.948.948,0,0,1-.933-.96V16.592A1.8,1.8,0,0,1,10.3,14.856L13.093,14a1.023,1.023,0,0,1,.127-.175l.226-.245a.333.333,0,0,0,.085-.224v-.269a3.707,3.707,0,0,1-1.263-2.519L11.972,7a2.9,2.9,0,0,1,.744-2.2,2.628,2.628,0,0,1,1.95-.866h2.2a2.628,2.628,0,0,1,1.95.866A2.9,2.9,0,0,1,19.56,7l-.3,3.574a3.7,3.7,0,0,1-1.307,2.557v.23a.333.333,0,0,0,.085.224l.226.245a1.046,1.046,0,0,1,.149.214l2.772.813a1.8,1.8,0,0,1,1.264,1.737v9.662a.948.948,0,0,1-.933.96h-1.34A1.148,1.148,0,0,1,19.106,28ZM12,18.316v8.5a.4.4,0,0,0,.379.418h6.724a.4.4,0,0,0,.379-.418v-8.5a.384.384,0,1,1,.768,0v8.131h1.267a.18.18,0,0,0,.164-.193V16.592a1.031,1.031,0,0,0-.712-1L18.5,14.867a1.054,1.054,0,0,1-.07.177L17.7,16.458a.779.779,0,0,1-.507.4.74.74,0,0,1-.379-.007,1.047,1.047,0,0,1-.226.388,5.157,5.157,0,0,1,.329,1.553,20.02,20.02,0,0,1-.391,5.5.384.384,0,0,1-.377.31h-.769a.384.384,0,0,1-.377-.31,20.024,20.024,0,0,1-.391-5.5,5.144,5.144,0,0,1,.317-1.521,1.045,1.045,0,0,1-.259-.42.74.74,0,0,1-.379.007.78.78,0,0,1-.507-.4l-.728-1.413a1.055,1.055,0,0,1-.077-.2l-2.462.751a1.032,1.032,0,0,0-.716,1v9.662a.181.181,0,0,0,.165.193h1.268V18.316a.384.384,0,1,1,.768,0Zm3.379.51a.35.35,0,0,1,0,.036A19.188,19.188,0,0,0,15.7,23.84h.132a19.089,19.089,0,0,0,.321-4.978c0-.012,0-.025,0-.037a4.4,4.4,0,0,0-.262-1.265l-.027,0h-.219A4.39,4.39,0,0,0,15.382,18.826Zm0-2.418v.109a.263.263,0,0,0,.246.277h.234a.263.263,0,0,0,.245-.277v-.109l-.362-.257Zm.836-.863.8.569.728-1.421a.308.308,0,0,0-.043-.344l-.142-.153Zm-2.433-1.2a.308.308,0,0,0-.043.344l.728,1.413.8-.562L13.927,14.2Zm1.96.582,1.221-1.225a3.4,3.4,0,0,1-2.466-.024Zm-2.1-6.7-.711,1.109.1,1.172a2.935,2.935,0,0,0,1.073,2.064.369.369,0,0,1,.069.05,2.634,2.634,0,0,0,3.151.022.382.382,0,0,1,.048-.035,2.927,2.927,0,0,0,1.124-2.1l.1-1.214a8.6,8.6,0,0,0-.809-1.548.064.064,0,0,0-.08-.028,10.841,10.841,0,0,1-3.867.4h-.011A.22.22,0,0,0,13.648,8.228Zm-.366-2.907a2.127,2.127,0,0,0-.544,1.614l.094,1.141L13,7.813a.985.985,0,0,1,.887-.459A10.092,10.092,0,0,0,17.45,7a.833.833,0,0,1,.984.331c.089.136.188.3.29.471l.071-.864a2.127,2.127,0,0,0-.544-1.614A1.867,1.867,0,0,0,16.866,4.7h-2.2A1.868,1.868,0,0,0,13.282,5.321ZM24.729,24.066a.384.384,0,1,1,0-.768h3.384a.4.4,0,0,0,.379-.418v-8.5a.384.384,0,1,1,.768,0v8.131h1.267a.18.18,0,0,0,.165-.192V12.658a1.03,1.03,0,0,0-.712-1l-2.473-.725a1.074,1.074,0,0,1-.07.177l-.728,1.413a.779.779,0,0,1-.507.4.751.751,0,0,1-.179.021.772.772,0,0,1-.2-.028,1.049,1.049,0,0,1-.227.388,5.149,5.149,0,0,1,.329,1.553,20,20,0,0,1-.391,5.5.384.384,0,0,1-.377.31h-.768a.384.384,0,0,1-.377-.31,20,20,0,0,1-.391-5.5,5.15,5.15,0,0,1,.316-1.522,1.046,1.046,0,0,1-.259-.42.768.768,0,0,1-.2.028.753.753,0,0,1-.179-.021.779.779,0,0,1-.507-.4l-.727-1.413a1.066,1.066,0,0,1-.077-.2l-2.007.612a.379.379,0,0,1-.112.017.384.384,0,0,1-.112-.752l2.342-.715a1.036,1.036,0,0,1,.127-.175l.226-.245a.333.333,0,0,0,.085-.224V9.157a3.706,3.706,0,0,1-1.263-2.519l-.3-3.574a2.9,2.9,0,0,1,.745-2.2A2.628,2.628,0,0,1,23.673,0h2.2a2.629,2.629,0,0,1,1.95.866,2.9,2.9,0,0,1,.745,2.2l-.3,3.574A3.7,3.7,0,0,1,26.965,9.2v.23a.332.332,0,0,0,.085.224l.225.245a1.044,1.044,0,0,1,.15.214l2.772.813a1.8,1.8,0,0,1,1.264,1.737V22.32a.948.948,0,0,1-.933.96H29.189a1.148,1.148,0,0,1-1.075.786Zm-.34-9.174c0,.012,0,.025,0,.036a19.16,19.16,0,0,0,.32,4.978h.132a19.1,19.1,0,0,0,.321-4.978.367.367,0,0,1,0-.037,4.389,4.389,0,0,0-.262-1.265l-.027,0H24.65A4.4,4.4,0,0,0,24.389,14.892Zm0-2.418v.109a.263.263,0,0,0,.245.277h.234a.263.263,0,0,0,.245-.277v-.109l-.362-.257Zm.836-.863.8.569.728-1.421a.308.308,0,0,0-.043-.344l-.142-.153Zm-2.433-1.2a.308.308,0,0,0-.043.344l.727,1.413.8-.562-1.343-1.349Zm1.96.583,1.221-1.226a3.4,3.4,0,0,1-2.466-.024Zm-2.1-6.7L21.943,5.4l.1,1.172a2.936,2.936,0,0,0,1.073,2.064.373.373,0,0,1,.069.05,2.633,2.633,0,0,0,3.152.021.375.375,0,0,1,.047-.034,2.929,2.929,0,0,0,1.124-2.1l.1-1.214a8.647,8.647,0,0,0-.81-1.548.064.064,0,0,0-.08-.028,10.84,10.84,0,0,1-3.867.4h-.014A.218.218,0,0,0,22.655,4.294Zm-.366-2.907A2.126,2.126,0,0,0,21.745,3l.094,1.141.169-.263a.992.992,0,0,1,.887-.459,10.081,10.081,0,0,0,3.562-.358.833.833,0,0,1,.984.331c.089.136.188.3.29.471L27.8,3a2.127,2.127,0,0,0-.544-1.614A1.868,1.868,0,0,0,25.873.768h-2.2A1.868,1.868,0,0,0,22.289,1.387ZM3.347,24.066a1.148,1.148,0,0,1-1.075-.786H.933A.948.948,0,0,1,0,22.32V12.658a1.8,1.8,0,0,1,1.264-1.737l2.794-.853a1.036,1.036,0,0,1,.127-.175l.226-.245A.333.333,0,0,0,4.5,9.426V9.157A3.706,3.706,0,0,1,3.233,6.638l-.3-3.574a2.9,2.9,0,0,1,.745-2.2A2.628,2.628,0,0,1,5.632,0h2.2a2.629,2.629,0,0,1,1.95.866,2.9,2.9,0,0,1,.745,2.2l-.3,3.574A3.7,3.7,0,0,1,8.923,9.2v.23a.332.332,0,0,0,.085.224l.225.245a1.044,1.044,0,0,1,.15.214l2.344.688a.384.384,0,1,1-.216.737l-2.046-.6a1.074,1.074,0,0,1-.07.177l-.728,1.413a.779.779,0,0,1-.507.4.751.751,0,0,1-.179.021.772.772,0,0,1-.2-.028,1.049,1.049,0,0,1-.227.388,5.149,5.149,0,0,1,.329,1.553,20,20,0,0,1-.391,5.5.384.384,0,0,1-.377.31H6.347a.384.384,0,0,1-.377-.31,20,20,0,0,1-.391-5.5A5.15,5.15,0,0,1,5.9,13.339a1.046,1.046,0,0,1-.259-.42.768.768,0,0,1-.2.028.753.753,0,0,1-.179-.021.779.779,0,0,1-.507-.4L4.024,11.11a1.066,1.066,0,0,1-.077-.2l-2.462.751a1.032,1.032,0,0,0-.716,1V22.32a.18.18,0,0,0,.164.192H2.2V14.381a.384.384,0,1,1,.768,0v8.5a.4.4,0,0,0,.379.418h3.34a.384.384,0,1,1,0,.768Zm3-9.174c0,.012,0,.025,0,.036a19.16,19.16,0,0,0,.32,4.978H6.8a19.1,19.1,0,0,0,.321-4.978.367.367,0,0,1,0-.037,4.389,4.389,0,0,0-.262-1.265l-.027,0H6.608A4.4,4.4,0,0,0,6.347,14.892Zm0-2.418v.109a.263.263,0,0,0,.245.277h.234a.263.263,0,0,0,.245-.277v-.109l-.362-.257Zm.836-.863.8.569.728-1.421a.308.308,0,0,0-.043-.344l-.142-.153Zm-2.433-1.2a.308.308,0,0,0-.043.344l.727,1.413.8-.562L4.892,10.261ZM6.71,11,7.93,9.772a3.4,3.4,0,0,1-2.466-.024Zm-2.1-6.7L3.9,5.4,4,6.575A2.936,2.936,0,0,0,5.072,8.639a.373.373,0,0,1,.069.05,2.633,2.633,0,0,0,3.152.021.374.374,0,0,1,.047-.034,2.929,2.929,0,0,0,1.124-2.1l.1-1.214a8.647,8.647,0,0,0-.81-1.548.064.064,0,0,0-.08-.028,10.84,10.84,0,0,1-3.867.4H4.795A.219.219,0,0,0,4.613,4.294ZM4.247,1.387A2.126,2.126,0,0,0,3.7,3L3.8,4.142l.169-.263a.992.992,0,0,1,.887-.459,10.081,10.081,0,0,0,3.562-.358.833.833,0,0,1,.984.331c.089.136.188.3.29.471L9.76,3a2.127,2.127,0,0,0-.544-1.614A1.868,1.868,0,0,0,7.831.768h-2.2A1.868,1.868,0,0,0,4.247,1.387Z" transform="translate(0.5 0.5)" fill="#454545" stroke="rgba(0,0,0,0)" stroke-width="1"/>
</svg>
