<svg xmlns="http://www.w3.org/2000/svg" width="28.49" height="29" viewBox="0 0 28.49 29">
  <path id="IconoIngresos" d="M9.589,27.779l-2.712-1.8a.555.555,0,0,0-.639.019l-1.3.982a1.325,1.325,0,0,1-2.121-1.066V.768H.384A.384.384,0,0,1,.384,0H27.106a.384.384,0,0,1,0,.768H24.678v25.14a1.326,1.326,0,0,1-2.121,1.066l-1.3-.982a.555.555,0,0,0-.639-.019l-2.712,1.8a1.321,1.321,0,0,1-1.456.006l-2.4-1.569a.554.554,0,0,0-.606,0l-2.4,1.569a1.321,1.321,0,0,1-1.455-.006Zm4.88-2.206,2.4,1.569a.553.553,0,0,0,.609,0l2.712-1.8a1.323,1.323,0,0,1,1.527.045l1.3.981a.542.542,0,0,0,.579.054.554.554,0,0,0,.311-.506V.768H3.581v25.14a.554.554,0,0,0,.311.506.542.542,0,0,0,.58-.054l1.3-.981A1.322,1.322,0,0,1,7.3,25.335l2.712,1.8a.553.553,0,0,0,.609,0l2.4-1.569a1.32,1.32,0,0,1,1.447,0ZM18.052,19.5a.384.384,0,0,1,0-.768h2.813a.384.384,0,0,1,0,.768Zm-11.339,0a.384.384,0,0,1,0-.768h6.5a.384.384,0,1,1,0,.768Zm11.339-2.626a.384.384,0,0,1,0-.768h2.813a.384.384,0,0,1,0,.768Zm-11.339,0a.384.384,0,0,1,0-.768h8.527a.384.384,0,0,1,0,.768Zm11.339-3.161a.384.384,0,0,1,0-.768h2.813a.384.384,0,0,1,0,.768Zm-11.339,0a.384.384,0,0,1,0-.768h6.5a.384.384,0,0,1,0,.768Zm11.339-2.626a.384.384,0,0,1,0-.768h2.813a.384.384,0,0,1,0,.768Zm-11.339,0a.384.384,0,0,1,0-.768h8.527a.384.384,0,0,1,0,.768ZM18.052,7.56a.384.384,0,0,1,0-.768h2.813a.384.384,0,0,1,0,.768Zm-11.339,0a.384.384,0,0,1,0-.768h6.5a.384.384,0,0,1,0,.768ZM18.052,4.934a.384.384,0,0,1,0-.768h2.813a.384.384,0,0,1,0,.768Zm-11.339,0a.384.384,0,0,1,0-.768h8.527a.384.384,0,0,1,0,.768Z" transform="translate(0.5 0.5)" fill="#454545" stroke="rgba(0,0,0,0)" stroke-width="1"/>
</svg>
