<svg xmlns="http://www.w3.org/2000/svg" width="29.047" height="29" viewBox="0 0 29.047 29">
  <path id="IconoLicencias" d="M2.736,28A2.739,2.739,0,0,1,0,25.264V10.209A3.278,3.278,0,0,1,2.852,7.125V3.738A1.3,1.3,0,0,1,4.217,2.51H5.7V1.229A1.3,1.3,0,0,1,7.069,0H20.657a.374.374,0,0,1,.125.023l.014,0a.384.384,0,0,1,.1.062l.009.005L25,3.64l.009.01a.426.426,0,0,1,.032.035l.019.024a.371.371,0,0,1,.026.043c0,.008.009.016.013.025a.4.4,0,0,1,.018.053c0,.007.005.014.006.022a.411.411,0,0,1,.007.065c0,.005,0,.01,0,.015V7.114a3.274,3.274,0,0,1,2.914,3.1V25.264A2.739,2.739,0,0,1,25.311,28ZM.768,25.264a1.97,1.97,0,0,0,1.968,1.968H25.311a1.97,1.97,0,0,0,1.968-1.968V10.593H.768ZM25.133,9.825h2.106A2.622,2.622,0,0,0,25.133,7.9ZM6.472,1.229V2.51H17.744a.378.378,0,0,1,.119.021l.017.005a.379.379,0,0,1,.1.057l.009.005,4.092,3.364.01.011a.369.369,0,0,1,.036.037.21.21,0,0,1,.019.023.381.381,0,0,1,.028.046c0,.008.009.015.012.022a.385.385,0,0,1,.02.06c0,.005,0,.011.005.017a.376.376,0,0,1,.009.08h0V9.825h2.146v-2.4a.041.041,0,0,1,0-.005h0V4.313L21.642,4.3a1.315,1.315,0,0,1-1.369-1.239V.768H7.069A.55.55,0,0,0,6.472,1.229ZM3.62,3.738V9.825H21.451V6.643l-2.7.012h-.006a1.458,1.458,0,0,1-1.026-.409,1.175,1.175,0,0,1-.356-.833V3.278H4.217A.549.549,0,0,0,3.62,3.738ZM.807,9.825H2.852V7.911A2.576,2.576,0,0,0,.807,9.825Zm17.32-4.412a.411.411,0,0,0,.129.289.691.691,0,0,0,.487.185l2.025-.009L18.128,3.707Zm2.914-2.352a.553.553,0,0,0,.6.47l2.069.01L21.041,1.225ZM15.014,25.49a1.313,1.313,0,0,1-1.374-1.237V18.216a1.313,1.313,0,0,1,1.374-1.237h3.119a.384.384,0,0,1,0,.768H15.014a.559.559,0,0,0-.606.468v6.037a.559.559,0,0,0,.606.469h9.117a.559.559,0,0,0,.606-.469V18.216a.558.558,0,0,0-.606-.468h-3.1a.384.384,0,0,1,0-.768h3.1a1.313,1.313,0,0,1,1.374,1.237v6.037a1.313,1.313,0,0,1-1.374,1.237Zm.937-2.229a.384.384,0,0,1,0-.768h7.073a.384.384,0,0,1,0,.768Zm0-1.642a.384.384,0,0,1,0-.768h7.073a.384.384,0,0,1,0,.768Zm0-1.643a.384.384,0,0,1,0-.768h7.073a.384.384,0,0,1,0,.768ZM5.681,9.058a.384.384,0,1,1,0-.768H19.224a.384.384,0,0,1,0,.768Zm0-1.6a.384.384,0,1,1,0-.768H16.929a.384.384,0,0,1,0,.768Z" transform="translate(0.5 0.5)" fill="#454545" stroke="rgba(0,0,0,0)" stroke-width="1"/>
</svg>
