<svg xmlns="http://www.w3.org/2000/svg" width="30.526" height="29" viewBox="0 0 30.526 29">
  <path id="IconoEgresos" d="M1.669,28A1.671,1.671,0,0,1,0,26.331V13.613a1.671,1.671,0,0,1,1.669-1.669H20.912a1.671,1.671,0,0,1,1.669,1.669V26.331A1.671,1.671,0,0,1,20.912,28ZM.77,13.613V26.331a.9.9,0,0,0,.9.9H20.912a.9.9,0,0,0,.9-.9V13.613a.9.9,0,0,0-.9-.9H1.669A.9.9,0,0,0,.77,13.613ZM7.655,25.3a.385.385,0,1,1,0-.77H9.992a.385.385,0,1,1,0,.77Zm-5.582,0a.385.385,0,0,1,0-.77h3.96a.385.385,0,0,1,0,.77ZM17.9,22.454a.385.385,0,1,1,0-.77h2.6a.385.385,0,1,1,0,.77Zm-3.96,0a.385.385,0,0,1,0-.77h2.6a.385.385,0,0,1,0,.77Zm-3.951,0a.385.385,0,1,1,0-.77h2.6a.385.385,0,0,1,0,.77Zm-3.96,0a.385.385,0,1,1,0-.77h2.6a.385.385,0,1,1,0,.77Zm-3.96,0a.385.385,0,0,1,0-.77h2.6a.385.385,0,0,1,0,.77Zm.983-2.63a1.11,1.11,0,0,1-1.108-1.108V15.555a1.11,1.11,0,0,1,1.108-1.108H8.75a1.109,1.109,0,0,1,1.108,1.108v3.161A1.109,1.109,0,0,1,8.75,19.824Zm4.647-.77H8.75a.338.338,0,0,0,.338-.338v-1.2H7.967A6.227,6.227,0,0,1,7.7,19.054Zm-3.024,0H6.889a6.139,6.139,0,0,0,0-3.837H4.679A6.143,6.143,0,0,0,4.678,19.054Zm-1.961-.338a.338.338,0,0,0,.338.338h.809A6.236,6.236,0,0,1,3.6,17.521H2.717ZM7.96,16.75H9.088v-1.2a.338.338,0,0,0-.338-.338H7.695A7.258,7.258,0,0,1,7.96,16.75Zm-5.243-1.2v1.2h.89a7.246,7.246,0,0,1,.265-1.533H3.055A.338.338,0,0,0,2.717,15.555Zm10.91,1.425a.385.385,0,1,1,0-.77H20.5a.385.385,0,1,1,0,.77Zm10.516-.924a.385.385,0,0,1,0-.77h3.57a1.118,1.118,0,0,0,1.043-1.178V7.169H7.716V9.983a.385.385,0,1,1-.77,0V1.949A1.887,1.887,0,0,1,8.759,0H27.714a1.887,1.887,0,0,1,1.813,1.949V14.107a1.886,1.886,0,0,1-1.813,1.949ZM7.716,6.4H28.756V3.969H7.716Zm0-4.45V3.2H28.756V1.949A1.118,1.118,0,0,0,27.714.77H8.759A1.118,1.118,0,0,0,7.716,1.949Zm15.064,7.5a.385.385,0,0,1,0-.77h.584a.385.385,0,0,1,0,.77Zm4.025,0a.385.385,0,0,1,0-.77h.584a.385.385,0,0,1,0,.77Zm-2.012,0a.385.385,0,1,1,0-.77h.584a.385.385,0,0,1,0,.77Z" transform="translate(0.5 0.5)" fill="#454545" stroke="rgba(0,0,0,0)" stroke-width="1"/>
</svg>
