<svg xmlns="http://www.w3.org/2000/svg" width="32.361" height="29" viewBox="0 0 32.361 29">
  <path id="IconoProveedores" d="M6.9,20.728A7.272,7.272,0,1,1,14.174,28,7.279,7.279,0,0,1,6.9,20.728Zm7.655,6.446c.94-.271,1.76-1.519,2.225-3.24a8.067,8.067,0,0,0-2.225-.414Zm-2.993-3.242c.465,1.722,1.284,2.971,2.225,3.242V23.517A7.482,7.482,0,0,0,11.565,23.932Zm4.628,2.977a6.518,6.518,0,0,0,2.752-1.767,5.986,5.986,0,0,0-1.438-.918A7.223,7.223,0,0,1,16.192,26.91Zm-6.74-1.715a6.518,6.518,0,0,0,2.7,1.715,7.212,7.212,0,0,1-1.31-2.671A5.645,5.645,0,0,0,9.453,25.194Zm-.5-.59a6.425,6.425,0,0,1,1.7-1.135,13.433,13.433,0,0,1-.265-2.357H7.683A6.469,6.469,0,0,0,8.955,24.6Zm8.735-1.146a6.765,6.765,0,0,1,1.743,1.088,6.466,6.466,0,0,0,1.232-3.434H17.952A13.445,13.445,0,0,1,17.69,23.459Zm-6.3-.282a8.307,8.307,0,0,1,2.4-.427V21.113H11.164A12.7,12.7,0,0,0,11.389,23.176Zm3.168-.424a8.937,8.937,0,0,1,2.4.424,12.741,12.741,0,0,0,.225-2.063H14.558ZM17.69,18a13.445,13.445,0,0,1,.262,2.346h2.713a6.466,6.466,0,0,0-1.232-3.434A6.771,6.771,0,0,1,17.69,18Zm-3.132.707v1.639h2.625a12.741,12.741,0,0,0-.225-2.063A8.937,8.937,0,0,1,14.558,18.705Zm-3.393,1.639h2.625V18.708a8.307,8.307,0,0,1-2.4-.427A12.7,12.7,0,0,0,11.164,20.345Zm-3.482,0H10.4a13.433,13.433,0,0,1,.265-2.357,6.435,6.435,0,0,1-1.7-1.135A6.468,6.468,0,0,0,7.683,20.345Zm3.882-2.82a7.477,7.477,0,0,0,2.225.415V14.283C12.849,14.554,12.029,15.8,11.565,17.525Zm2.993.412a8.1,8.1,0,0,0,2.225-.411c-.465-1.723-1.284-2.972-2.225-3.244Zm2.95-.7a5.883,5.883,0,0,0,1.438-.922,6.516,6.516,0,0,0-2.753-1.768A7.221,7.221,0,0,1,17.507,17.237Zm-8.055-.974a5.649,5.649,0,0,0,1.393.956,7.207,7.207,0,0,1,1.31-2.671A6.518,6.518,0,0,0,9.453,16.263Zm16.611,8.386a.884.884,0,0,1-.733-.77l-.741-6.133a.89.89,0,0,1,1.4-.829L30.973,20.5a.889.889,0,0,1-.519,1.612H28.1a.121.121,0,0,0-.109.068l-.981,1.987a.883.883,0,0,1-.795.5A.907.907,0,0,1,26.064,24.649Zm-.653-7.115a.115.115,0,0,0-.059.119l.741,6.133a.122.122,0,0,0,.23.039l.981-1.987a.884.884,0,0,1,.8-.5h2.352a.121.121,0,0,0,.071-.22L25.543,17.54a.119.119,0,0,0-.07-.024A.124.124,0,0,0,25.41,17.534Zm-3.275,3.555a.384.384,0,1,1,0-.768h2.056a.384.384,0,1,1,0,.768Zm-20.432,0a1.7,1.7,0,0,1-1.7-1.7V1.7A1.705,1.705,0,0,1,1.7,0H26.644a1.705,1.705,0,0,1,1.7,1.7V17.341a.384.384,0,0,1-.768,0V5.1H.768V19.386a.936.936,0,0,0,.935.935H6.061a.384.384,0,0,1,0,.768ZM.768,1.7V4.334H27.579V1.7a.936.936,0,0,0-.935-.935H1.7A.936.936,0,0,0,.768,1.7Zm22.4,10.106a.51.51,0,1,1,.51.51A.511.511,0,0,1,23.164,11.809Zm.253,0a.258.258,0,1,0,.258-.258A.258.258,0,0,0,23.417,11.809ZM8.5,12l-.969-2.3L6.6,12a.392.392,0,0,1-.361.239.384.384,0,0,1-.354-.25L4.456,8.163a.384.384,0,0,1,.72-.269L6.26,10.8l.909-2.239a.384.384,0,0,1,.353-.239h0a.384.384,0,0,1,.354.235l.934,2.215.958-2.862a.384.384,0,1,1,.728.244l-1.28,3.826a.384.384,0,0,1-.35.262H8.855A.383.383,0,0,1,8.5,12Zm13.184-.046-.969-2.3-.931,2.292a.389.389,0,0,1-.361.239.384.384,0,0,1-.354-.25L17.641,8.117a.384.384,0,0,1,.72-.269l1.084,2.9.909-2.239a.384.384,0,0,1,.353-.239h0a.384.384,0,0,1,.354.235L22,10.722l.958-2.862a.384.384,0,0,1,.728.244L22.4,11.931a.384.384,0,0,1-.349.262h-.015A.384.384,0,0,1,21.685,11.958Zm-8.748.229a.384.384,0,0,1-.354-.25L11.154,8.112a.384.384,0,0,1,.72-.269l1.084,2.9.909-2.239a.385.385,0,0,1,.353-.24h0a.384.384,0,0,1,.354.235l.934,2.215.958-2.862A.384.384,0,1,1,17.2,8.1l-1.28,3.826a.384.384,0,0,1-.35.262h-.015a.384.384,0,0,1-.354-.235l-.969-2.3L13.3,11.948a.383.383,0,0,1-.358.239Zm-4-9.57A1.036,1.036,0,1,1,9.977,3.653,1.038,1.038,0,0,1,8.94,2.617Zm.768,0a.268.268,0,1,0,.268-.268A.269.269,0,0,0,9.708,2.617Zm-4.127,0A1.037,1.037,0,1,1,6.618,3.653,1.038,1.038,0,0,1,5.582,2.617Zm.768,0a.268.268,0,1,0,.268-.268A.269.269,0,0,0,6.35,2.617Zm-4.157,0A1.036,1.036,0,1,1,3.229,3.653,1.038,1.038,0,0,1,2.193,2.617Zm.768,0a.268.268,0,1,0,.268-.268A.269.269,0,0,0,2.961,2.617Z" transform="translate(0.5 0.5)" fill="#454545" stroke="rgba(0,0,0,0)" stroke-width="1"/>
</svg>
