<svg xmlns="http://www.w3.org/2000/svg" width="30.075" height="29" viewBox="0 0 30.075 29">
  <path id="IconoReportes" d="M5.689,28a.386.386,0,0,1-.171-.04,4.014,4.014,0,0,1-.574.04,2.579,2.579,0,0,1-2.57-2.32.392.392,0,0,1,0-.047V21.551a.384.384,0,1,1,.768,0v4.055a1.838,1.838,0,0,0,1.8,1.626,2.339,2.339,0,0,0,2.17-1.161V24.933a.384.384,0,0,1,.384-.384H23.932v-4.3a.384.384,0,0,1,.768,0v4.3h2.555a.384.384,0,0,1,.384.4,3.544,3.544,0,0,1-2.371,3.027.378.378,0,0,1-.141.027Zm2.192-1.842a.38.38,0,0,1-.03.148,2.756,2.756,0,0,1-.708.926H25.052A2.862,2.862,0,0,0,26.8,25.318H7.881ZM18.738,23.3a.384.384,0,1,1,0-.769h1.421a.384.384,0,0,1,0,.769Zm-6.039,0a.384.384,0,0,1,0-.769H14.12a.384.384,0,0,1,0,.769Zm-5.933,0a.384.384,0,0,1,0-.769H8.187a.384.384,0,0,1,0,.769Zm-1.421-1.84a.384.384,0,0,1,0-.768H21.474a.384.384,0,1,1,0,.768ZM.484,19.129a1.535,1.535,0,0,1,1.557-1.508,1.583,1.583,0,0,1,.774.2L7.248,13.69a1.461,1.461,0,0,1-.156-.654,1.557,1.557,0,0,1,3.113,0,1.458,1.458,0,0,1-.05.374l4.771,2.809A1.577,1.577,0,0,1,16,15.8a1.6,1.6,0,0,1,.431.06l2.714-3.975a.384.384,0,1,1,.634.433L17.1,16.245a1.481,1.481,0,0,1,.456,1.066,1.557,1.557,0,0,1-3.113,0,1.457,1.457,0,0,1,.07-.446L9.773,14.076a1.585,1.585,0,0,1-2.019.192L3.373,18.353a1.466,1.466,0,0,1,.224.776,1.535,1.535,0,0,1-1.557,1.509A1.535,1.535,0,0,1,.484,19.129Zm.768,0a.766.766,0,0,0,.788.74.742.742,0,1,0,0-1.481A.766.766,0,0,0,1.253,19.129Zm13.956-1.818a.79.79,0,1,0,.788-.74A.766.766,0,0,0,15.209,17.311ZM7.861,13.036a.79.79,0,1,0,.788-.74A.766.766,0,0,0,7.861,13.036ZM20.921,17.3V11.895c0-.023,0-.045,0-.068a6.092,6.092,0,0,1-4.43-5.778,6.295,6.295,0,0,1,12.579,0,6.091,6.091,0,0,1-4.4,5.77c0,.025.005.05.005.076V17.3a1.878,1.878,0,0,1-3.755,0Zm.768,0a1.111,1.111,0,0,0,2.218,0V13.959H21.689Zm0-4.111h2.218V12A6.458,6.458,0,0,1,21.689,12ZM17.263,6.049a5.527,5.527,0,0,0,11.043,0,5.527,5.527,0,0,0-11.043,0ZM2.371,16.187V3.066A2.235,2.235,0,0,0,.347.766.384.384,0,0,1,.384,0H17.893a.384.384,0,1,1,0,.769H2.167a2.922,2.922,0,0,1,.972,2.3v13.12a.384.384,0,1,1-.768,0ZM18.006,6.039a4.791,4.791,0,0,1,9.576,0,4.791,4.791,0,0,1-9.576,0Zm.768,0a4.024,4.024,0,0,0,8.04,0,4.024,4.024,0,0,0-8.04,0ZM5.345,9.325a.384.384,0,0,1,0-.769h9.166a.384.384,0,0,1,0,.769ZM22.412,8.237V7.9a.384.384,0,1,1,.768,0v.337a.384.384,0,1,1-.768,0ZM22.4,6.719v-.67a.384.384,0,0,1,.335-.381.948.948,0,0,0,.684-.335.961.961,0,0,0,.126-.667.412.412,0,0,1-.008-.082c0-.168-.083-.572-.741-.572a.76.76,0,0,0-.855.624.387.387,0,0,1-.43.33.382.382,0,0,1-.333-.422,1.68,1.68,0,0,1,2.739-.887,1.393,1.393,0,0,1,.387.889,1.7,1.7,0,0,1-.254,1.227,1.544,1.544,0,0,1-.882.591v.355a.384.384,0,1,1-.768,0ZM5.345,6.872a.384.384,0,1,1,0-.769h9.166a.384.384,0,0,1,0,.769Zm0-2.453a.384.384,0,1,1,0-.769h9.166a.384.384,0,0,1,0,.769Z" transform="translate(0.501 0.5)" fill="#454545" stroke="rgba(0,0,0,0)" stroke-width="1"/>
</svg>
