<svg xmlns="http://www.w3.org/2000/svg" width="25.892" height="28" viewBox="0 0 25.892 28">
  <path id="IconoUsuarios" d="M35.61,20.494l-5.66-1.571a1.642,1.642,0,0,0-.314-.46L29.187,18a.914.914,0,0,1-.262-.641v-.583a6.517,6.517,0,0,0,2.6-4.678l.587-6.711a4.957,4.957,0,0,0-1.283-3.771A5.015,5.015,0,0,0,27.137,0H22.768a5.015,5.015,0,0,0-3.69,1.621A4.956,4.956,0,0,0,17.8,5.391l.587,6.711a6.517,6.517,0,0,0,2.509,4.611v.65a.913.913,0,0,1-.261.641l-.449.459a1.641,1.641,0,0,0-.277.386l-5.7,1.645a3.064,3.064,0,0,0-2.244,2.939v3.1A1.472,1.472,0,0,0,13.436,28H36.381a1.472,1.472,0,0,0,1.474-1.466v-3.1a3.064,3.064,0,0,0-2.244-2.939M29.086,19a.857.857,0,0,1,.141,1.013l-1.445,2.653a.389.389,0,0,1-.252.194.394.394,0,0,1-.317-.056L25.376,21.57a.086.086,0,0,1-.012-.136l3.17-3.009c.032.04.067.078.1.115Zm-4.41,5.918h.465a1.671,1.671,0,0,0,.228-.018,8.449,8.449,0,0,1,.608,2.331H23.84a8.451,8.451,0,0,1,.608-2.331,1.672,1.672,0,0,0,.228.018m.465-.768h-.465a.863.863,0,0,1-.866-.858v-.373l1.059-.711c.014-.01.025-.023.039-.033.014.01.025.023.039.033l1.059.711v.373a.863.863,0,0,1-.865.858m-5.5-22.011A4.246,4.246,0,0,1,22.768.768h4.368A4.246,4.246,0,0,1,30.26,2.139a4.132,4.132,0,0,1,1.084,3.185L31.1,8.138a19.175,19.175,0,0,0-1.172-1.927,1.307,1.307,0,0,0-1.5-.483,21.543,21.543,0,0,1-7.231.694,1.607,1.607,0,0,0-1.414.7L18.84,8.515l-.279-3.19a4.132,4.132,0,0,1,1.084-3.185m-.5,9.9-.2-2.308,1.475-2.175a.842.842,0,0,1,.736-.363,22.305,22.305,0,0,0,7.521-.734.53.53,0,0,1,.616.191,16.06,16.06,0,0,1,1.669,3.034l-.206,2.354a5.751,5.751,0,0,1-2.362,4.18.383.383,0,0,0-.135.1,5.918,5.918,0,0,1-6.7-.06.383.383,0,0,0-.137-.1,5.752,5.752,0,0,1-2.275-4.117m5.8,6.053a6.644,6.644,0,0,0,3.205-.814v.089a1.69,1.69,0,0,0,.032.33l-3.281,3.114-3.281-3.114a1.69,1.69,0,0,0,.032-.33v-.138a6.639,6.639,0,0,0,3.292.863M20.732,19l.449-.46c.036-.037.07-.076.1-.115l3.171,3.009a.087.087,0,0,1-.012.136l-1.23.826h0L22.6,22.8a.394.394,0,0,1-.317.056.389.389,0,0,1-.252-.194l-1.445-2.653A.857.857,0,0,1,20.732,19m-8,7.534v-3.1a2.3,2.3,0,0,1,1.685-2.2L19.723,19.7a1.626,1.626,0,0,0,.193.679l1.445,2.653a1.166,1.166,0,0,0,1.672.408l.017-.011a1.622,1.622,0,0,0,.684,1.188,9.105,9.105,0,0,0-.666,2.614H17.1V24.4a.384.384,0,0,0-.768,0v2.828h-2.9a.7.7,0,0,1-.705-.7m24.355,0a.7.7,0,0,1-.706.7h-2.9V24.4a.384.384,0,0,0-.768,0v2.828H26.75a9.1,9.1,0,0,0-.666-2.614,1.623,1.623,0,0,0,.684-1.188l.017.011a1.165,1.165,0,0,0,1.672-.408L29.9,20.38a1.628,1.628,0,0,0,.187-.621l5.317,1.475a2.294,2.294,0,0,1,1.681,2.2Z" transform="translate(-11.963)" fill="#454545"/>
</svg>
