<svg xmlns="http://www.w3.org/2000/svg" width="31.833" height="29" viewBox="0 0 31.833 29">
  <path id="IconoPaginaWeb" d="M8.75,28a1.024,1.024,0,0,1,0-2.048h3.357V22.068H1.769A1.771,1.771,0,0,1,0,20.3V1.769A1.771,1.771,0,0,1,1.769,0H27.527A1.771,1.771,0,0,1,29.3,1.769V6.535a.384.384,0,1,1-.768,0V1.769a1,1,0,0,0-1-1H1.769a1,1,0,0,0-1,1V16.563H15.916a.384.384,0,1,1,0,.768H.768V20.3a1,1,0,0,0,1,1H18.033a.384.384,0,0,1,0,.768H12.875v3.884h3.767a.384.384,0,0,1,0,.768H8.75a.256.256,0,1,0,0,.512H22.482a.384.384,0,0,1,0,.768Zm12.283-1.4A1.54,1.54,0,0,1,19.5,25.066V24.26a.353.353,0,0,1,0-.224V9.283a1.54,1.54,0,0,1,1.539-1.538h8.261a1.54,1.54,0,0,1,1.538,1.538V25.066A1.54,1.54,0,0,1,29.295,26.6Zm-.771-1.538a.772.772,0,0,0,.771.771h8.261a.772.772,0,0,0,.771-.771V9.283a.771.771,0,0,0-.771-.771H21.034a.771.771,0,0,0-.771.771V23.764H27a.384.384,0,0,1,0,.768H20.263Zm1.625-5.215a.384.384,0,0,1,0-.768h6.279a.384.384,0,0,1,0,.768Zm4.264-2.13a.384.384,0,0,1,0-.768h2.015a.384.384,0,0,1,0,.768Zm-3.9,0a.91.91,0,0,1-.909-.909V15.549a.91.91,0,0,1,.909-.909h1.537a.91.91,0,0,1,.909.909v1.263a.91.91,0,0,1-.909.909Zm-.142-2.172v1.263a.142.142,0,0,0,.142.141h1.537a.141.141,0,0,0,.141-.141V15.549a.141.141,0,0,0-.141-.141H22.256A.142.142,0,0,0,22.114,15.549Zm4.037-.308a.384.384,0,0,1,0-.768h2.015a.384.384,0,0,1,0,.768ZM5,13.071A.384.384,0,1,1,5,12.3H15.917a.384.384,0,1,1,0,.768Zm16.733-2.915a.384.384,0,0,1,0-.768h1.36a.384.384,0,0,1,0,.768ZM11.149,10a.384.384,0,1,1,0-.768h4.767a.384.384,0,1,1,0,.768ZM5.831,10a.91.91,0,0,1-.909-.909V7.061a.91.91,0,0,1,.909-.909h3.1a.91.91,0,0,1,.909.909V9.086A.91.91,0,0,1,8.932,10ZM5.689,7.061V9.086a.142.142,0,0,0,.142.142h3.1a.142.142,0,0,0,.141-.142V7.061a.141.141,0,0,0-.141-.141h-3.1A.141.141,0,0,0,5.689,7.061Zm5.46-.141a.384.384,0,1,1,0-.768h4.767a.384.384,0,1,1,0,.768ZM4.677,2.441a.384.384,0,0,1,0-.768H5.934a.384.384,0,0,1,0,.768ZM2,2.441a.384.384,0,0,1,0-.768H3.256a.384.384,0,0,1,0,.768Z" transform="translate(0.5 0.5)" fill="#454545" stroke="rgba(0,0,0,0)" stroke-width="1"/>
</svg>
